<svg width="36" height="29" viewBox="0 0 36 29" fill="none" xmlns="http://www.w3.org/2000/svg">
<path d="M19.2685 26.383C19.3553 24.8549 19.3994 20.9378 19.4007 14.6316C19.4007 11.2629 19.3567 8.95537 19.2685 7.70895C15.3408 7.87267 0.480947 10.4457 0.454491 10.4093C0.0739381 9.91208 -0.0705503 8.82467 1.32549 8.20617C3.61898 7.19557 8.49495 7.00759 16.6534 5.87369C17.52 5.75181 18.3934 5.6843 19.2685 5.67157L21.0858 5.65338H23.0252C24.7425 5.64287 26.4535 5.86039 28.1128 6.30017C38.3694 9.09146 37.5859 14.8903 30.1478 21.2976C28.3692 22.8297 25.4326 20.3112 28.7416 18.3405C39.7166 11.7999 29.7347 8.16575 25.0419 7.83023L23.2572 7.70491C23.2425 7.70427 23.2281 7.7091 23.2168 7.71844C23.2055 7.72779 23.1981 7.74098 23.1961 7.75544C23.1106 9.01264 23.0679 11.3707 23.0679 14.8297C23.0679 21.0038 23.112 24.8549 23.2002 26.383H25.573C25.7027 26.6855 25.7718 27.0102 25.7765 27.339C25.7979 27.5449 25.7389 27.7511 25.6117 27.915C25.4464 28.0426 25.2379 28.1019 25.0297 28.0808H16.8956C16.7602 27.7505 16.6871 27.3984 16.6799 27.0419C16.6714 26.9506 16.6825 26.8586 16.7123 26.7719C16.7421 26.6852 16.79 26.6057 16.8529 26.5386C17.0192 26.42 17.2229 26.3647 17.4268 26.383H19.2685Z" fill="#4D5873"/>
<path d="M8.34211 6.39705C11.3947 6.39705 13.6515 6.82285 15.1127 7.67446C16.5739 8.52606 17.3038 9.80617 17.3024 11.5148C17.3024 14.1397 15.7205 16.0349 12.5567 17.2004C16.4395 17.7839 18.381 19.5424 18.381 22.4758C18.381 24.4094 17.5961 25.959 16.0264 27.1246C14.4567 28.2902 11.702 28.8757 7.76212 28.8811L0.425787 28.8972C0.290273 28.5614 0.217187 28.2039 0.210073 27.8421C0.202657 27.7533 0.214434 27.6638 0.244616 27.5798C0.274797 27.4958 0.322688 27.4192 0.385087 27.355C0.550741 27.2367 0.753694 27.1815 0.956934 27.1994H2.17796C2.25529 25.6606 2.29396 22.3424 2.29396 17.2449C2.29396 12.6635 2.25529 9.60876 2.17796 8.08072H0.417648C0.283238 7.75018 0.210157 7.39821 0.201934 7.04182C0.193504 6.95071 0.204755 6.85886 0.234937 6.77242C0.265118 6.68597 0.313533 6.60692 0.376945 6.54056C0.541834 6.42052 0.745202 6.36445 0.948795 6.3829L8.34211 6.39705ZM8.1264 16.2363C9.94166 16.2363 11.2468 15.9176 12.0418 15.2803C12.8368 14.6429 13.2357 13.7199 13.2384 12.5112C13.2384 11.2379 12.8429 10.3014 12.052 9.70174C11.261 9.10211 10.0244 8.80297 8.34211 8.80432C7.58132 8.80173 6.82142 8.85646 6.06896 8.96804C6.02419 10.3748 5.99638 12.7538 5.98553 16.1049C6.69526 16.1975 7.41058 16.2414 8.1264 16.2363ZM5.98756 22.401C5.98756 24.332 6.12798 25.4996 6.40882 25.9038C6.68965 26.308 7.716 26.5054 9.48784 26.496C11.2136 26.496 12.4495 26.1969 13.1957 25.5986C13.9419 25.0003 14.3156 24.0524 14.317 22.7547C14.317 21.3278 13.8422 20.2316 12.8925 19.4662C11.9428 18.7009 10.4938 18.3195 8.54561 18.3222C7.6908 18.3173 6.8367 18.372 5.9896 18.4859L5.98756 22.401Z" fill="#73737A"/>
<path d="M4.11952 5.62916C5.24344 5.62916 6.15456 4.72423 6.15456 3.60795C6.15456 2.49166 5.24344 1.58673 4.11952 1.58673C2.99559 1.58673 2.08447 2.49166 2.08447 3.60795C2.08447 4.72423 2.99559 5.62916 4.11952 5.62916Z" fill="#73737A"/>
<path d="M20.9979 4.99433C22.1219 4.99433 23.033 4.08941 23.033 2.97312C23.033 1.85683 22.1219 0.951904 20.9979 0.951904C19.874 0.951904 18.9629 1.85683 18.9629 2.97312C18.9629 4.08941 19.874 4.99433 20.9979 4.99433Z" fill="#4D5873"/>
<path d="M0.45459 10.4091L1.32355 11.7471C2.18845 12.9437 4.13599 11.7795 1.95035 8.9801L0.45459 10.4091Z" fill="#4D5873"/>
</svg>
