<svg width="32" height="33" viewBox="0 0 32 33" fill="none" xmlns="http://www.w3.org/2000/svg">
<path d="M26.3856 1.9519H28.5162C29.4927 1.9519 30.2917 2.74454 30.2917 3.71331V6.35541C30.2917 7.32418 29.4927 8.11681 28.5162 8.11681H10.3174" stroke="#D9D9D9" stroke-width="2" stroke-miterlimit="10" stroke-linecap="round" stroke-linejoin="round"/>
<path d="M5.8787 8.11681H2.77159C1.79507 8.11681 0.996094 7.32418 0.996094 6.35541V3.71331C0.996094 2.74454 1.79507 1.9519 2.77159 1.9519H21.6806" stroke="#D9D9D9" stroke-width="2" stroke-miterlimit="10" stroke-linecap="round" stroke-linejoin="round"/>
<path d="M6.14503 19.566H2.77159C1.79507 19.566 0.996094 18.7734 0.996094 17.8046V15.1625C0.996094 14.1938 1.79507 13.4011 2.77159 13.4011H20.5265" stroke="#D9D9D9" stroke-width="2" stroke-miterlimit="10" stroke-linecap="round" stroke-linejoin="round"/>
<path d="M25.4095 13.4011H28.5167C29.4932 13.4011 30.2922 14.1938 30.2922 15.1625V17.8046C30.2922 18.7734 29.4932 19.566 28.5167 19.566H10.7617" stroke="#D9D9D9" stroke-width="2" stroke-miterlimit="10" stroke-linecap="round" stroke-linejoin="round"/>
<path d="M6.32258 31.0152H2.77159C1.79507 31.0152 0.996094 30.2226 0.996094 29.2538V26.6117C0.996094 25.6429 1.79507 24.8503 2.77159 24.8503H20.1714" stroke="#D9D9D9" stroke-width="2" stroke-miterlimit="10" stroke-linecap="round" stroke-linejoin="round"/>
<path d="M24.6993 24.8503H28.5167C29.4932 24.8503 30.2922 25.6429 30.2922 26.6117V29.2538C30.2922 30.2226 29.4932 31.0152 28.5167 31.0152H10.7617" stroke="#D9D9D9" stroke-width="2" stroke-miterlimit="10" stroke-linecap="round" stroke-linejoin="round"/>
</svg>
