<svg width="30" height="31" viewBox="0 0 30 31" fill="none" xmlns="http://www.w3.org/2000/svg">
<path d="M5.3057 19.6852L2.31589 22.7718C1.66944 23.4392 1.66944 24.4402 2.31589 25.1076L6.35618 29.2787C7.00262 29.9461 7.97229 29.9461 8.61874 29.2787L15.2448 22.4381L21.8709 29.2787C22.5173 29.9461 23.487 29.9461 24.1335 29.2787L28.1737 25.1076C28.8202 24.4402 28.8202 23.4392 28.1737 22.7718L21.5477 15.9312L28.1737 9.0906C28.8202 8.42322 28.8202 7.42216 28.1737 6.75478L26.0728 4.58582" stroke="white" stroke-width="2" stroke-miterlimit="10" stroke-linecap="round" stroke-linejoin="round"/>
<path d="M22.5981 1.83411L15.2448 9.4255L8.61874 2.5849C7.97229 1.91753 7.00262 1.91753 6.35618 2.5849L2.31589 6.756C1.66944 7.42337 1.66944 8.42443 2.31589 9.09181L8.94196 15.9324" stroke="white" stroke-width="2" stroke-miterlimit="10" stroke-linecap="round" stroke-linejoin="round"/>
</svg>
