<svg width="40" height="19" viewBox="0 0 40 19" fill="none" xmlns="http://www.w3.org/2000/svg">
<path d="M38.3654 0.870455C39.7096 1.91554 39.7096 3.60997 38.3654 4.65506L22.1393 17.2704C20.795 18.3155 18.6156 18.3155 17.2714 17.2704C15.9272 16.2253 15.9272 14.5309 17.2714 13.4858L33.4976 0.870455C34.8418 -0.174634 37.0212 -0.174635 38.3654 0.870455Z" fill="white"/>
<path d="M1.04527 0.870455C2.38949 -0.174634 4.5689 -0.174635 5.91311 0.870454L22.1393 13.4858C23.4835 14.5309 23.4835 16.2253 22.1393 17.2704C20.795 18.3155 18.6156 18.3155 17.2714 17.2704L1.04527 4.65506C-0.298947 3.60997 -0.298947 1.91554 1.04527 0.870455Z" fill="white"/>
</svg>
