<svg width="38" height="36" viewBox="0 0 38 36" fill="none" xmlns="http://www.w3.org/2000/svg">
<path d="M29.2848 10.1452C31.6124 10.1452 33.4992 8.25835 33.4992 5.93077C33.4992 3.60319 31.6124 1.71631 29.2848 1.71631C26.9572 1.71631 25.0703 3.60319 25.0703 5.93077C25.0703 8.25835 26.9572 10.1452 29.2848 10.1452Z" stroke="white" stroke-width="2"/>
<path d="M16.6417 10.1453C18.7107 10.1453 20.3879 8.4681 20.3879 6.39914C20.3879 4.33018 18.7107 2.65295 16.6417 2.65295C14.5727 2.65295 12.8955 4.33018 12.8955 6.39914C12.8955 8.4681 14.5727 10.1453 16.6417 10.1453Z" stroke="white" stroke-width="2"/>
<path d="M6.33943 10.1452C7.89115 10.1452 9.14907 8.88724 9.14907 7.33552C9.14907 5.7838 7.89115 4.52588 6.33943 4.52588C4.7877 4.52588 3.52979 5.7838 3.52979 7.33552C3.52979 8.88724 4.7877 10.1452 6.33943 10.1452Z" stroke="white" stroke-width="2"/>
<path d="M1.65674 20.9155V27.003C1.65674 28.0332 2.49963 28.8761 3.52983 28.8761H5.30927" stroke="white" stroke-width="2" stroke-linecap="round" stroke-linejoin="round"/>
<path d="M7.27602 15.8578C6.9014 15.7642 6.43313 15.7642 5.96485 15.7642C3.52983 15.9515 1.65674 18.1055 1.65674 20.6342" stroke="white" stroke-width="2" stroke-linecap="round" stroke-linejoin="round"/>
<path d="M19.0763 16.2326C18.0461 15.8579 17.0159 15.6706 15.7984 15.7643C12.4268 16.1389 10.0854 19.1359 10.0854 22.5074V29.8125C10.0854 30.8427 10.9283 31.6856 11.9585 31.6856H17.0159" stroke="white" stroke-width="2" stroke-linecap="round" stroke-linejoin="round"/>
<path d="M36.3089 23.0696V32.6224C36.3089 33.6526 35.4661 34.4955 34.4358 34.4955H24.1338C23.1036 34.4955 22.2607 33.6526 22.2607 32.6224V28.8762" stroke="white" stroke-width="2" stroke-linecap="round" stroke-linejoin="round"/>
<path d="M22.2607 24.4745V22.7887C22.2607 18.8552 25.5387 15.6709 29.4722 15.7646C31.2516 15.8582 32.9374 16.6075 34.1549 17.825" stroke="white" stroke-width="2" stroke-linecap="round" stroke-linejoin="round"/>
</svg>
