<svg width="32" height="33" viewBox="0 0 32 33" fill="none" xmlns="http://www.w3.org/2000/svg">
<path d="M11.7701 4.31873L3.75998 10.6441C2.55553 11.5905 1.78125 13.139 1.78125 14.6876V30.2593C1.78125 31.2057 2.55553 31.9799 3.50188 31.9799H20.7082" stroke="white" stroke-width="2" stroke-miterlimit="10" stroke-linecap="round" stroke-linejoin="round"/>
<path d="M25.4396 31.9798H28.4507C29.397 31.9798 30.1713 31.2056 30.1713 30.2592V14.6875C30.1713 13.1389 29.483 11.5904 28.1926 10.644L16.4923 1.43863C16.1481 1.18053 15.718 1.18053 15.4599 1.43863L11.5024 4.53576" stroke="white" stroke-width="2" stroke-miterlimit="10" stroke-linecap="round" stroke-linejoin="round"/>
<path d="M11.2451 26.99V19.9354C11.2451 19.4192 11.5892 19.0751 12.1054 19.0751H19.7622C20.2784 19.0751 20.6226 19.4192 20.6226 19.9354V31.9798" stroke="white" stroke-width="2" stroke-miterlimit="10" stroke-linecap="round" stroke-linejoin="round"/>
</svg>
