<svg width="41" height="26" viewBox="0 0 41 26" fill="none" xmlns="http://www.w3.org/2000/svg">
<path d="M30.9845 1.42316H31.5059C35.9242 1.42316 39.5059 5.00488 39.5059 9.42316V16.8972C39.5059 21.3155 35.9242 24.8972 31.5059 24.8972H20.5337H15.7907M25.2768 1.42316H20.5337H9.56152C5.14325 1.42316 1.56152 5.00488 1.56152 9.42316V16.8972C1.56152 21.3155 5.18231 24.8972 9.60059 24.8972V24.8972" stroke="white" stroke-width="2" stroke-linecap="round"/>
<path d="M25.0003 13.3212C25.0003 16.4504 22.8073 18.7525 20.373 18.7525C17.9386 18.7525 15.7456 16.4504 15.7456 13.3212C15.7456 10.192 17.9386 7.88995 20.373 7.88995C22.8073 7.88995 25.0003 10.192 25.0003 13.3212Z" stroke="white" stroke-width="2"/>
<circle cx="8.15385" cy="13.1604" r="1.7686" fill="white"/>
<circle cx="32.5928" cy="13.1604" r="1.7686" fill="white"/>
</svg>
