<svg width="37" height="38" viewBox="0 0 37 38" fill="none" xmlns="http://www.w3.org/2000/svg">
<path d="M18.3635 25.1886C21.9513 25.1886 24.8597 22.2801 24.8597 18.6923C24.8597 15.1045 21.9513 12.196 18.3635 12.196C14.7757 12.196 11.8672 15.1045 11.8672 18.6923C11.8672 22.2801 14.7757 25.1886 18.3635 25.1886Z" stroke="white" stroke-width="2"/>
<path d="M24.8598 28.6111C26.041 27.9795 27.6158 27.8893 28.8954 28.4307L31.553 29.5134C33.4231 27.7089 34.8995 25.4532 35.687 22.9269L33.3247 21.393C32.1435 20.6712 31.553 19.4081 31.553 18.1449C31.553 16.8817 32.242 15.6186 33.3247 14.8968L35.687 13.3629C34.8995 10.8366 33.4231 8.67116 31.553 6.77642L28.8954 7.85913C27.6158 8.40048 26.1394 8.31026 24.8598 7.67868C23.5803 7.04709 22.7928 5.87416 22.6944 4.61099L22.3007 1.81398C20.9227 1.54331 19.5447 1.36285 18.1667 1.36285C16.7887 1.36285 15.3123 1.54331 14.0327 1.81398" stroke="white" stroke-width="2" stroke-linecap="round" stroke-linejoin="round"/>
<path d="M11.9161 8.77264C10.7296 9.4083 9.14753 9.49911 7.86212 8.95426L5.19242 7.86456C3.31374 9.68073 1.83057 11.9509 1.03955 14.4936L3.41262 16.0373C4.59915 16.7638 5.19242 18.0351 5.19242 19.3064C5.19242 20.5777 4.50027 21.849 3.41262 22.5755L1.03955 24.1192C1.83057 26.6618 3.31374 28.8412 5.19242 30.7482L7.86212 29.6585C9.14753 29.1137 10.6307 29.2045 11.9161 29.8401C13.2015 30.4758 13.9925 31.6563 14.0914 32.9276L14.3881 35.561C15.7723 35.8335 17.1566 36.0151 18.5409 36.0151C19.9252 36.0151 21.4084 35.8335 22.6938 35.561" stroke="white" stroke-width="2" stroke-linecap="round" stroke-linejoin="round"/>
</svg>
