<svg width="17" height="36" viewBox="0 0 17 36" fill="none" xmlns="http://www.w3.org/2000/svg">
<path d="M8.51177 9.67338C10.8876 9.67338 12.8136 7.7474 12.8136 5.37157C12.8136 2.99575 10.8876 1.06976 8.51177 1.06976C6.13595 1.06976 4.20996 2.99575 4.20996 5.37157C4.20996 7.7474 6.13595 9.67338 8.51177 9.67338Z" stroke="white" stroke-width="2"/>
<path d="M15.6821 22.8655V32.6163C15.6821 33.6679 14.8218 34.5282 13.7702 34.5282H3.25469C2.20314 34.5282 1.34277 33.6679 1.34277 32.6163V28.7925" stroke="white" stroke-width="2" stroke-linecap="round" stroke-linejoin="round"/>
<path d="M1.34277 24.2995V22.5788C1.34277 18.5638 4.68863 15.3135 8.70365 15.4091C10.52 15.5047 12.2407 16.2695 13.4834 17.5122" stroke="white" stroke-width="2" stroke-linecap="round" stroke-linejoin="round"/>
</svg>
