<svg width="21" height="23" viewBox="0 0 21 23" fill="none" xmlns="http://www.w3.org/2000/svg">
<path d="M18.1296 22.9803C18.8043 22.9803 21.1239 21.653 20.9948 18.3723C20.9719 17.7942 20.6752 17.264 20.2192 16.9447C19.6996 16.5798 18.8938 16.0142 17.8433 15.2787C16.8844 14.6082 15.6465 14.5603 14.646 15.1601L13.736 15.5866C13.2623 15.9515 12.6543 16.0233 12.1202 15.7793C11.2883 15.3985 10.0108 14.6607 8.8125 13.3482C7.61415 12.0357 6.94054 10.6366 6.5928 9.72551C6.36895 9.14054 6.43559 8.47461 6.76875 7.95578L7.15813 6.95917C7.70577 5.86449 7.66308 4.50754 7.04986 3.45734C6.37728 2.30564 5.86088 1.4242 5.52876 0.855192C5.2362 0.355745 4.75207 0.0307623 4.22526 0.00567588C1.23095 -0.13572 0.0180302 2.40485 0.0180302 3.14376C0.0180302 3.65575 -0.621226 9.80533 5.71304 16.7429C12.0473 23.6804 17.6632 22.9803 18.1296 22.9803Z" fill="white"/>
</svg>
