<svg width="22" height="27" viewBox="0 0 22 27" fill="none" xmlns="http://www.w3.org/2000/svg">
<path d="M10.2525 2.28938C10.9204 1.48566 11.9599 1.51948 12.5741 2.36494L19.9889 12.5705C20.6032 13.4159 20.5596 14.7529 19.8917 15.5566C19.2238 16.3603 18.1844 16.3265 17.5701 15.481L10.1553 5.27549C9.54108 4.43004 9.58459 3.09311 10.2525 2.28938Z" fill="#D9D9D9"/>
<path d="M9.50746 25.1829C8.8932 24.3374 8.93671 23.0005 9.60464 22.1968L17.6673 12.4949C18.3352 11.6912 19.3746 11.725 19.9889 12.5705C20.6032 13.4159 20.5596 14.7529 19.8917 15.5566L11.8291 25.2585C11.1611 26.0622 10.1217 26.0284 9.50746 25.1829Z" fill="#D9D9D9"/>
</svg>
