<svg width="27" height="24" viewBox="0 0 27 24" fill="none" xmlns="http://www.w3.org/2000/svg">
<path d="M10.3219 18.3629C7.68712 18.3629 5.02515 17.4677 3.01509 15.6774C-1.00503 12.0968 -1.00503 6.26613 3.01509 2.68548C7.03521 -0.895162 13.5815 -0.895162 17.6016 2.68548C21.6489 6.26613 21.6489 12.0968 17.6288 15.6774C15.6187 17.4677 12.9839 18.3629 10.3219 18.3629ZM10.3219 1.45161C8.09457 1.45161 5.8672 2.20161 4.1831 3.72581C0.787727 6.75 0.787727 11.6613 4.1831 14.6855C7.57847 17.6613 13.0926 17.6613 16.4879 14.6613C19.8833 11.6371 19.8833 6.72581 16.4879 3.70161C14.7767 2.20161 12.5493 1.45161 10.3219 1.45161ZM26.2666 20.2984L22.8169 17.2258C22.3551 16.8145 21.7304 16.5968 21.0785 16.5968C20.6982 16.5968 20.3451 16.6694 20.0191 16.8145L19.34 16.2097C19.0141 15.9194 18.498 15.9194 18.1992 16.2097C17.8732 16.5 17.8732 16.9597 18.1992 17.2258L18.8783 17.8306C18.4437 18.629 18.6066 19.6452 19.34 20.2984L22.8169 23.371C23.3058 23.8065 23.9306 24 24.5553 24C25.1801 24 25.8048 23.7823 26.2938 23.371C26.7555 22.9597 27 22.4032 27 21.8226C27 21.2661 26.7284 20.7097 26.2666 20.2984ZM25.1258 22.3548C24.7998 22.6452 24.2837 22.6452 23.9849 22.3548L20.508 19.2823C20.1821 18.9919 20.1821 18.5323 20.508 18.2661C20.671 18.121 20.8612 18.0484 21.0785 18.0484C21.2958 18.0484 21.5131 18.121 21.6489 18.2661L25.0986 21.3387C25.2616 21.4839 25.3431 21.6532 25.3431 21.8468C25.3431 22.0403 25.2887 22.2097 25.1258 22.3548Z" fill="white"/>
</svg>
