<svg width="40" height="36" viewBox="0 0 40 36" fill="none" xmlns="http://www.w3.org/2000/svg">
<path d="M13.6082 28.734L19.7368 34.0718C20.3838 34.6354 21.3935 34.1758 21.3935 33.3177V2.58228C21.3935 1.74013 20.4162 1.27511 19.7628 1.80632L10.2716 9.52172H2.37402C1.82174 9.52172 1.37402 9.96944 1.37402 10.5217V24.3436C1.37402 24.8959 1.82174 25.3436 2.37402 25.3436H10.2716V15.1724" stroke="white" stroke-width="2" stroke-linecap="round" stroke-linejoin="round"/>
<path d="M36.4088 10.4893C36.4088 10.4893 40.5796 17.9966 36.4088 25.504M27.6582 13.8259C28.2285 15.9781 28.6053 18.9662 27.7507 22.1674M32.1353 12.1576C33.0164 14.5385 34.1442 19.1605 32.1353 23.9933" stroke="white" stroke-width="2" stroke-linecap="round" stroke-linejoin="round"/>
</svg>
